<?xml version="1.0" standalone="no"?>
<!DOCTYPE svg PUBLIC "-//W3C//DTD SVG 20010904//EN"
 "http://www.w3.org/TR/2001/REC-SVG-20010904/DTD/svg10.dtd">
<svg version="1.0" xmlns="http://www.w3.org/2000/svg"
 width="512.000000pt" height="512.000000pt" viewBox="0 0 512.000000 512.000000"
 preserveAspectRatio="xMidYMid meet">
<metadata>
Created by potrace 1.16, written by Peter Selinger 2001-2019
</metadata>
<g transform="translate(0.000000,512.000000) scale(0.100000,-0.100000)"
fill="#000000" stroke="none">
<path d="M1705 3054 c-77 -102 -188 -249 -247 -326 -60 -78 -108 -144 -108
-148 0 -11 60 -41 69 -35 6 3 12 -9 14 -27 l4 -33 1 32 c2 24 29 68 110 174
59 78 122 162 140 187 42 55 182 202 193 202 6 0 179 -208 316 -379 2 -2 6 -2
9 2 5 4 -180 240 -341 435 l-21 24 -198 -252 c-109 -139 -212 -272 -229 -296
-17 -24 -35 -44 -39 -44 -18 0 1 26 331 453 115 149 147 185 159 178 40 -23
215 -211 287 -310 44 -61 85 -110 90 -110 6 0 49 51 97 112 48 62 121 153 161
203 l73 91 27 -38 c15 -21 72 -94 126 -161 151 -190 331 -437 322 -442 -4 -3
-66 72 -136 167 -136 181 -319 412 -333 421 -5 3 -25 -17 -45 -44 -21 -28 -33
-50 -28 -50 5 0 16 11 25 25 9 14 21 25 26 25 22 0 113 -106 276 -323 l174
-230 0 -469 0 -468 -105 0 -105 0 -2 173 c-1 94 -3 195 -3 222 l0 50 -88 3
-87 3 0 -227 0 -226 -102 7 c-63 4 -108 12 -117 20 -37 36 -74 222 -89 453
l-7 112 67 0 68 0 0 115 0 115 -84 0 c-95 0 -96 1 -96 78 0 70 22 140 75 236
26 48 45 89 43 92 -3 2 -21 -20 -42 -51 -20 -30 -61 -84 -91 -120 -52 -61 -54
-65 -35 -75 20 -10 20 -21 20 -495 l0 -484 -394 -1 -394 0 -6 22 c-3 13 -6 96
-6 186 0 177 3 171 -60 153 l-25 -7 23 -8 c22 -7 22 -9 20 -174 l-3 -167 -41
-3 c-39 -3 -42 -1 -49 30 l-9 33 -3 -32 c-4 -30 -7 -33 -39 -33 -32 0 -34 2
-34 35 0 34 1 35 39 35 l38 0 7 77 c3 42 6 109 6 149 0 64 -2 72 -17 68 -16
-5 -18 -18 -15 -139 l3 -134 -63 -3 -63 -3 -5 -40 -5 -40 -340 -5 c-325 -5
-312 -5 290 -11 683 -7 3685 -2 3693 6 3 3 -110 5 -251 5 l-257 0 0 30 c0 25
-4 30 -25 30 -23 0 -24 4 -27 63 l-3 62 -37 3 -38 3 0 66 0 65 44 -49 44 -48
-34 -3 c-50 -5 -41 -22 11 -22 25 0 45 3 45 6 0 3 -25 34 -55 68 -30 35 -52
66 -48 69 3 4 1 7 -5 7 -8 0 -12 -26 -12 -79 0 -67 -3 -80 -17 -84 -10 -3 8
-5 40 -6 l57 -1 0 -90 0 -90 -109 0 -109 0 -34 39 c-19 23 -45 73 -62 122 -15
46 -33 87 -40 91 -6 4 24 8 68 8 l78 0 -4 -40 c-3 -39 -3 -40 27 -39 17 1 22
3 13 6 -15 4 -18 16 -18 74 l0 69 -64 0 -64 0 -12 35 c-6 19 -18 35 -25 35 -7
0 -20 3 -29 6 -14 5 -16 -16 -16 -201 l0 -207 -345 4 c-294 3 -347 5 -356 18
-6 9 -9 78 -7 170 3 150 4 156 32 205 38 65 285 305 314 305 5 0 61 -53 123
-118 63 -65 124 -121 137 -124 22 -6 22 -6 -3 24 -14 17 -80 87 -145 157
l-120 127 -157 -157 -156 -158 -19 25 c-11 14 -31 25 -46 25 -27 2 -27 2 -2 6
14 3 94 72 193 166 l169 161 99 -104 c54 -58 129 -140 166 -182 l68 -77 190 2
190 2 -176 2 -177 3 -73 83 c-40 45 -79 90 -87 100 -14 16 -7 17 126 17 l141
0 47 -50 47 -50 61 2 61 2 -55 3 c-53 4 -57 6 -100 58 l-45 55 -160 0 -160 -1
-82 88 -82 88 -128 -127 -128 -128 -58 0 -57 0 0 93 c-1 61 -6 100 -15 117
-17 31 -19 80 -3 80 6 0 22 10 34 21 l23 22 -62 80 c-86 112 -86 112 -89 202
l-2 80 -3 -69 -4 -70 -30 35 c-17 18 -44 53 -60 77 l-30 42 66 0 c42 0 64 4
60 10 -3 6 -37 10 -75 10 l-68 0 -44 53 c-25 28 -73 89 -107 135 -35 45 -65
82 -66 82 -2 0 -35 -40 -74 -90 l-71 -90 -184 0 -184 0 -27 36 c-24 31 -26 42
-23 97 l3 62 -85 2 -85 2 -140 -185z m667 -81 c-22 -27 -53 -60 -69 -76 l-30
-28 -25 20 c-13 11 -46 45 -72 75 l-48 56 142 0 142 0 -40 -47z m748 -793
c-43 -38 -57 -38 -62 0 l-5 30 51 0 51 -1 -35 -29z m-340 -375 l0 -205 -42 0
c-89 0 -88 0 -88 112 l0 100 38 -4 37 -3 3 83 c3 77 2 82 -18 82 -18 0 -19 3
-10 20 8 14 21 20 45 20 l35 0 0 -205z m-1582 -167 c-2 -25 -8 -34 -25 -36
-20 -3 -23 1 -23 32 0 32 3 36 26 36 23 0 25 -3 22 -32z m3062 -8 c0 -11 -6
-20 -14 -20 -7 0 -16 9 -19 20 -4 15 0 20 14 20 12 0 19 -7 19 -20z"/>
<path d="M2435 2940 c-9 -16 -13 -30 -11 -30 3 0 12 14 21 30 9 17 13 30 11
30 -3 0 -12 -13 -21 -30z"/>
<path d="M2510 2830 l0 -80 75 0 76 0 -3 78 -3 77 -72 3 -73 3 0 -81z"/>
<path d="M2390 2860 c-6 -11 -8 -20 -6 -20 3 0 10 9 16 20 6 11 8 20 6 20 -3
0 -10 -9 -16 -20z"/>
<path d="M2184 2678 c-4 -7 -14 -24 -22 -38 -14 -24 -13 -24 3 -5 20 24 37 55
31 55 -3 0 -8 -6 -12 -12z"/>
<path d="M1580 2346 l0 -86 180 0 180 0 0 80 0 80 -149 0 c-82 0 -163 3 -180
6 l-31 7 0 -87z"/>
<path d="M2614 2378 c3 -13 6 -60 6 -105 l0 -83 110 0 110 0 0 105 0 105 -116
0 c-116 0 -116 0 -110 -22z"/>
<path d="M4141 2150 c31 -47 112 -140 122 -140 10 0 -31 52 -99 125 -36 39
-41 42 -23 15z"/>
<path d="M1321 2050 c-51 -32 -95 -61 -97 -63 -3 -2 3 -10 13 -18 9 -8 14 -9
10 -2 -5 7 27 32 88 70 83 51 112 75 88 72 -5 0 -50 -27 -102 -59z"/>
<path d="M1415 2069 c-4 -6 -5 -12 -2 -15 2 -3 7 2 10 11 7 17 1 20 -8 4z"/>
<path d="M1580 1875 l0 -135 210 0 210 0 0 135 0 135 -210 0 -210 0 0 -135z"/>
<path d="M3260 1880 l0 -90 55 0 55 0 0 90 0 90 -55 0 -55 0 0 -90z"/>
<path d="M3460 1880 l0 -90 65 0 65 0 0 90 0 90 -65 0 -65 0 0 -90z"/>
<path d="M2360 1866 l0 -76 100 0 100 0 0 70 0 70 -62 0 c-35 0 -80 3 -100 6
l-38 7 0 -77z"/>
</g>
</svg>